<mxfile host="app.diagrams.net" modified="2021-10-25T08:20:10.244Z" agent="5.0 (Windows NT 10.0; Win64; x64) AppleWebKit/537.36 (KHTML, like Gecko) Chrome/95.0.4638.54 Safari/537.36 Edg/95.0.1020.30" etag="-VMfQT1VlqhsiG4jxhD_" version="15.5.9" type="github">
  <diagram id="HJL4gtccgw9ECOeoA37o" name="Page-1">
    <mxGraphModel dx="2633" dy="955" grid="1" gridSize="10" guides="1" tooltips="1" connect="1" arrows="1" fold="1" page="1" pageScale="1" pageWidth="827" pageHeight="1169" math="0" shadow="0">
      <root>
        <mxCell id="0" />
        <mxCell id="1" parent="0" />
        <mxCell id="zwlfHStFDQA1q4JiYd55-5" value="Создание компьютерной игры" style="rounded=0;whiteSpace=wrap;html=1;fontFamily=Times New Roman;fontSize=22;" parent="1" vertex="1">
          <mxGeometry x="240" y="420" width="290" height="120" as="geometry" />
        </mxCell>
        <mxCell id="zwlfHStFDQA1q4JiYd55-6" value="" style="endArrow=classic;html=1;" parent="1" edge="1">
          <mxGeometry width="50" height="50" relative="1" as="geometry">
            <mxPoint x="280.5" y="240" as="sourcePoint" />
            <mxPoint x="280" y="420" as="targetPoint" />
          </mxGeometry>
        </mxCell>
        <mxCell id="zwlfHStFDQA1q4JiYd55-7" value="" style="endArrow=classic;html=1;" parent="1" edge="1">
          <mxGeometry width="50" height="50" relative="1" as="geometry">
            <mxPoint x="-20" y="480" as="sourcePoint" />
            <mxPoint x="240" y="479.5" as="targetPoint" />
          </mxGeometry>
        </mxCell>
        <mxCell id="zwlfHStFDQA1q4JiYd55-8" value="" style="endArrow=classic;html=1;" parent="1" edge="1">
          <mxGeometry width="50" height="50" relative="1" as="geometry">
            <mxPoint x="530" y="479.5" as="sourcePoint" />
            <mxPoint x="770" y="480" as="targetPoint" />
            <Array as="points">
              <mxPoint x="620" y="480" />
            </Array>
          </mxGeometry>
        </mxCell>
        <mxCell id="zwlfHStFDQA1q4JiYd55-9" value="" style="endArrow=classic;html=1;" parent="1" edge="1">
          <mxGeometry width="50" height="50" relative="1" as="geometry">
            <mxPoint x="390" y="730" as="sourcePoint" />
            <mxPoint x="389.5" y="540" as="targetPoint" />
          </mxGeometry>
        </mxCell>
        <mxCell id="p-8zRFwqx9bhIr6z1Y6U-1" value="Автор: Дыбов Д.В." style="text;html=1;strokeColor=none;fillColor=none;align=center;verticalAlign=middle;whiteSpace=wrap;rounded=0;fontFamily=Times New Roman;fontSize=28;" parent="1" vertex="1">
          <mxGeometry x="20" y="80" width="250" height="30" as="geometry" />
        </mxCell>
        <mxCell id="p-8zRFwqx9bhIr6z1Y6U-2" value="Проект: Деятельность компании" style="text;html=1;align=center;verticalAlign=middle;resizable=0;points=[];autosize=1;strokeColor=none;fillColor=none;fontSize=28;fontFamily=Times New Roman;" parent="1" vertex="1">
          <mxGeometry x="20" y="130" width="400" height="40" as="geometry" />
        </mxCell>
        <mxCell id="p-8zRFwqx9bhIr6z1Y6U-3" value="Создание концепта игры" style="text;html=1;align=center;verticalAlign=middle;resizable=0;points=[];autosize=1;strokeColor=none;fillColor=none;fontSize=24;fontFamily=Times New Roman;" parent="1" vertex="1">
          <mxGeometry x="-30" y="440" width="270" height="30" as="geometry" />
        </mxCell>
        <mxCell id="p-8zRFwqx9bhIr6z1Y6U-4" value="Директор" style="text;html=1;align=center;verticalAlign=middle;resizable=0;points=[];autosize=1;strokeColor=none;fillColor=none;fontSize=24;fontFamily=Times New Roman;" parent="1" vertex="1">
          <mxGeometry x="110" y="555" width="110" height="30" as="geometry" />
        </mxCell>
        <mxCell id="p-8zRFwqx9bhIr6z1Y6U-6" value="Одобрение проекта и&amp;nbsp;" style="text;html=1;strokeColor=none;fillColor=none;align=center;verticalAlign=middle;whiteSpace=wrap;rounded=0;fontFamily=Times New Roman;fontSize=24;" parent="1" vertex="1">
          <mxGeometry x="12" y="610" width="335" height="30" as="geometry" />
        </mxCell>
        <mxCell id="p-8zRFwqx9bhIr6z1Y6U-7" value="&lt;span style=&quot;color: rgb(32 , 33 , 34) ; font-family: sans-serif ; font-size: 16px ; background-color: rgb(255 , 255 , 255)&quot;&gt;Проектирование правил и структуры игры&lt;/span&gt;" style="text;html=1;strokeColor=none;fillColor=none;align=center;verticalAlign=middle;whiteSpace=wrap;rounded=0;fontFamily=Times New Roman;fontSize=16;" parent="1" vertex="1">
          <mxGeometry x="294" y="320" width="120" height="30" as="geometry" />
        </mxCell>
        <mxCell id="w9K8XpA9BYmhiicVjxku-1" value="Реализация игры" style="text;html=1;strokeColor=none;fillColor=none;align=center;verticalAlign=middle;whiteSpace=wrap;rounded=0;fontSize=24;fontFamily=Times New Roman;" parent="1" vertex="1">
          <mxGeometry x="530" y="440" width="230" height="30" as="geometry" />
        </mxCell>
        <mxCell id="w9K8XpA9BYmhiicVjxku-3" value="Бета-тест игры" style="text;html=1;align=center;verticalAlign=middle;resizable=0;points=[];autosize=1;strokeColor=none;fillColor=none;fontSize=24;fontFamily=Times New Roman;" parent="1" vertex="1">
          <mxGeometry x="430" y="555" width="170" height="30" as="geometry" />
        </mxCell>
        <mxCell id="iIeiYjmVbhsuRGoYx768-2" value="" style="endArrow=classic;html=1;" edge="1" parent="1">
          <mxGeometry width="50" height="50" relative="1" as="geometry">
            <mxPoint x="490.5" y="240" as="sourcePoint" />
            <mxPoint x="490" y="420" as="targetPoint" />
          </mxGeometry>
        </mxCell>
        <mxCell id="iIeiYjmVbhsuRGoYx768-3" value="Создание спрайтов" style="text;html=1;strokeColor=none;fillColor=none;align=center;verticalAlign=middle;whiteSpace=wrap;rounded=0;fontSize=16;" vertex="1" parent="1">
          <mxGeometry x="500" y="310" width="60" height="30" as="geometry" />
        </mxCell>
      </root>
    </mxGraphModel>
  </diagram>
</mxfile>
